<?xml version="1.0" standalone="no"?>
<!DOCTYPE svg PUBLIC "-//W3C//DTD SVG 20010904//EN"
 "http://www.w3.org/TR/2001/REC-SVG-20010904/DTD/svg10.dtd">
<svg version="1.0" xmlns="http://www.w3.org/2000/svg"
 width="277.000000pt" height="64.000000pt" viewBox="0 0 277.000000 64.000000"
 preserveAspectRatio="xMidYMid meet">
<metadata>
Created by potrace 1.15, written by Peter Selinger 2001-2017
</metadata>
<g transform="translate(0.000000,64.000000) scale(0.100000,-0.100000)"
fill="#000000" stroke="none">
<path d="M1407 602 c-25 -28 -37 -69 -37 -132 0 -57 -1 -59 -27 -62 -25 -3
-28 -7 -28 -43 0 -37 2 -40 28 -40 l29 1 -3 -128 c-3 -139 1 -152 47 -146 l29
3 3 142 3 142 28 6 c16 3 45 3 65 -1 l36 -6 0 -122 c0 -77 5 -130 13 -146 27
-54 107 -28 172 57 39 51 45 87 16 103 -25 13 -48 4 -57 -23 -8 -27 -45 -77
-56 -77 -4 0 -8 54 -8 119 l0 119 47 8 c51 10 60 23 48 71 -6 26 -12 26 -78 7
-15 -5 -17 0 -15 36 4 52 -16 70 -57 52 -25 -11 -27 -17 -23 -61 l3 -49 -67 1
-68 1 0 53 c0 51 12 69 24 37 4 -10 15 -14 33 -12 23 2 29 8 31 34 2 25 -3 37
-24 53 -33 26 -85 27 -107 3z"/>
<path d="M423 590 c4 -17 -1 -21 -33 -26 -37 -6 -90 -50 -90 -74 0 -19 100
-11 127 10 35 28 59 25 94 -10 25 -24 30 -37 27 -67 -3 -36 -5 -38 -41 -41
-31 -3 -43 2 -66 27 -26 27 -35 31 -85 31 -31 0 -56 -3 -56 -6 0 -3 11 -25 25
-49 21 -35 33 -45 70 -54 61 -15 84 -68 54 -123 -9 -17 -8 -28 6 -55 37 -68
94 -47 146 55 33 65 34 177 1 243 -27 55 -83 114 -134 140 -47 24 -52 24 -45
-1z"/>
<path d="M792 593 c-108 -53 -160 -228 -87 -290 34 -30 74 -29 141 3 75 35 88
28 81 -41 -6 -62 -34 -108 -78 -131 -48 -24 -82 -15 -95 26 -16 47 -37 59 -63
36 -25 -22 -27 -56 -7 -95 45 -87 182 -80 265 14 47 53 61 94 61 170 0 60 -3
69 -29 96 -36 35 -64 37 -149 7 -78 -27 -92 -19 -73 43 26 86 106 129 133 72
9 -19 21 -28 37 -28 50 0 53 66 4 111 -31 29 -91 32 -141 7z"/>
<path d="M2480 608 c-1 -2 -1 -129 -2 -283 l-1 -280 34 -3 c95 -7 219 164 219
302 0 39 -5 57 -18 69 -25 23 -80 21 -119 -3 l-32 -19 -3 107 -3 107 -37 3
c-21 2 -38 2 -38 0z"/>
<path d="M1831 586 c-8 -9 -12 -95 -13 -267 l-1 -254 27 -10 c18 -6 33 -6 44
1 15 10 17 27 13 127 l-3 115 72 4 71 3 -2 -115 c-2 -63 0 -121 5 -128 9 -15
62 -16 71 -2 11 18 8 521 -3 532 -5 5 -22 8 -38 6 l-29 -3 -3 -97 c-2 -68 -6
-98 -15 -98 -7 -1 -39 -3 -71 -6 l-59 -6 6 95 c3 63 2 98 -6 106 -15 15 -52
14 -66 -3z"/>
<path d="M133 429 c-18 -5 -33 -14 -33 -19 0 -5 -7 -16 -16 -25 -13 -12 -19
-13 -24 -4 -16 24 -30 -4 -30 -59 0 -61 38 -162 61 -162 7 0 9 -3 6 -6 -8 -8
56 -60 108 -87 27 -13 65 -22 115 -24 81 -4 122 9 128 40 5 25 -45 87 -69 87
-31 0 -77 28 -84 51 -4 12 -2 38 5 58 10 33 9 41 -16 85 l-27 49 -24 -29 c-30
-38 -43 -77 -32 -95 5 -8 9 -31 9 -51 0 -45 -24 -63 -63 -49 -67 26 -79 141
-15 141 16 0 59 56 75 96 6 16 -23 18 -74 3z"/>
<path d="M1106 398 c-32 -31 -48 -58 -60 -97 -19 -64 -21 -173 -5 -204 43 -79
141 -75 198 9 52 75 67 194 35 274 -19 47 -38 60 -88 60 -28 0 -45 -9 -80 -42z
m98 -54 c3 -9 6 -41 6 -73 0 -93 -61 -187 -91 -139 -12 19 -11 109 2 149 21
62 69 99 83 63z"/>
<path d="M2204 419 c-4 -7 -6 -87 -5 -178 2 -135 6 -169 18 -183 22 -24 64
-23 97 3 22 17 26 18 26 4 0 -13 8 -16 38 -13 l37 3 3 165 c3 208 3 212 -46
208 l-37 -3 4 -116 c3 -114 3 -115 -25 -149 l-29 -34 -5 150 -5 149 -32 3
c-17 2 -35 -2 -39 -9z"/>
</g>
</svg>
